<mxfile host="app.diagrams.net" modified="2024-02-06T06:45:32.860Z" agent="Mozilla/5.0 (Windows NT 10.0; Win64; x64) AppleWebKit/537.36 (KHTML, like Gecko) Chrome/121.0.0.0 Safari/537.36 Edg/121.0.0.0" etag="MjM-Z1Wy77t_S9ovK_2W" version="23.1.1" type="github" pages="4">
  <diagram id="XUFdWhN2E5ZnEAoLLILI" name="HIVs STIs App">
    <mxGraphModel dx="1426" dy="785" grid="1" gridSize="10" guides="1" tooltips="1" connect="1" arrows="1" fold="1" page="1" pageScale="1" pageWidth="850" pageHeight="1100" math="0" shadow="0">
      <root>
        <mxCell id="0" />
        <mxCell id="1" parent="0" />
        <mxCell id="mp6wlyp8Qep9YMIuHo80-85" value="" style="rounded=0;whiteSpace=wrap;html=1;" parent="1" vertex="1">
          <mxGeometry x="650" y="200" width="190" height="130" as="geometry" />
        </mxCell>
        <mxCell id="mp6wlyp8Qep9YMIuHo80-79" value="" style="rounded=0;whiteSpace=wrap;html=1;" parent="1" vertex="1">
          <mxGeometry x="430" y="340" width="410" height="400" as="geometry" />
        </mxCell>
        <mxCell id="mp6wlyp8Qep9YMIuHo80-80" value="แหล่งข้อมูลภายนอกองค์กร" style="text;html=1;strokeColor=none;fillColor=none;align=center;verticalAlign=middle;whiteSpace=wrap;rounded=0;" parent="1" vertex="1">
          <mxGeometry x="525" y="710" width="220" height="30" as="geometry" />
        </mxCell>
        <mxCell id="mp6wlyp8Qep9YMIuHo80-77" value="" style="rounded=0;whiteSpace=wrap;html=1;" parent="1" vertex="1">
          <mxGeometry x="10" y="340" width="410" height="400" as="geometry" />
        </mxCell>
        <mxCell id="mp6wlyp8Qep9YMIuHo80-78" value="แหล่งข้อมูลภายในองค์กร" style="text;html=1;strokeColor=none;fillColor=none;align=center;verticalAlign=middle;whiteSpace=wrap;rounded=0;" parent="1" vertex="1">
          <mxGeometry x="105" y="710" width="220" height="30" as="geometry" />
        </mxCell>
        <mxCell id="mp6wlyp8Qep9YMIuHo80-68" value="" style="rounded=0;whiteSpace=wrap;html=1;" parent="1" vertex="1">
          <mxGeometry x="430" y="30" width="210" height="300" as="geometry" />
        </mxCell>
        <mxCell id="mp6wlyp8Qep9YMIuHo80-64" value="" style="rounded=0;whiteSpace=wrap;html=1;" parent="1" vertex="1">
          <mxGeometry x="10" y="30" width="410" height="300" as="geometry" />
        </mxCell>
        <mxCell id="yPWFvxvl_rHCcni11IY2-4" value="NAP PLUS" style="rounded=1;whiteSpace=wrap;html=1;" parent="1" vertex="1">
          <mxGeometry x="440" y="50" width="90" height="40" as="geometry" />
        </mxCell>
        <mxCell id="yPWFvxvl_rHCcni11IY2-5" value="EIIS-43 Files-HDC" style="shape=cylinder3;whiteSpace=wrap;html=1;boundedLbl=1;backgroundOutline=1;size=15;fillColor=#FFF2CC;" parent="1" vertex="1">
          <mxGeometry x="540" y="360" width="90" height="60" as="geometry" />
        </mxCell>
        <mxCell id="yPWFvxvl_rHCcni11IY2-7" value="NAP PLUS" style="shape=cylinder3;whiteSpace=wrap;html=1;boundedLbl=1;backgroundOutline=1;size=15;fillColor=#FFF2CC;" parent="1" vertex="1">
          <mxGeometry x="440" y="360" width="90" height="60" as="geometry" />
        </mxCell>
        <mxCell id="yPWFvxvl_rHCcni11IY2-8" value="HSS" style="shape=cylinder3;whiteSpace=wrap;html=1;boundedLbl=1;backgroundOutline=1;size=15;fillColor=#FF9933;" parent="1" vertex="1">
          <mxGeometry x="640" y="360" width="90" height="60" as="geometry" />
        </mxCell>
        <mxCell id="yPWFvxvl_rHCcni11IY2-9" value="BSS" style="shape=cylinder3;whiteSpace=wrap;html=1;boundedLbl=1;backgroundOutline=1;size=15;fillColor=#FFF2CC;fontStyle=0" parent="1" vertex="1">
          <mxGeometry x="738" y="360" width="90" height="60" as="geometry" />
        </mxCell>
        <mxCell id="yPWFvxvl_rHCcni11IY2-10" value="GAM report" style="shape=cylinder3;whiteSpace=wrap;html=1;boundedLbl=1;backgroundOutline=1;size=15;fillColor=#FF9933;" parent="1" vertex="1">
          <mxGeometry x="738" y="430" width="90" height="60" as="geometry" />
        </mxCell>
        <mxCell id="yPWFvxvl_rHCcni11IY2-13" value="Report 506" style="shape=cylinder3;whiteSpace=wrap;html=1;boundedLbl=1;backgroundOutline=1;size=15;fillColor=#FFF2CC;" parent="1" vertex="1">
          <mxGeometry x="440" y="430" width="90" height="60" as="geometry" />
        </mxCell>
        <mxCell id="yPWFvxvl_rHCcni11IY2-14" value="AEM คาดประมาณ" style="shape=cylinder3;whiteSpace=wrap;html=1;boundedLbl=1;backgroundOutline=1;size=15;fillColor=#FFF2CC;" parent="1" vertex="1">
          <mxGeometry x="20" y="430" width="90" height="60" as="geometry" />
        </mxCell>
        <mxCell id="yPWFvxvl_rHCcni11IY2-18" value="ฐานข้อมูล" style="shape=cylinder3;whiteSpace=wrap;html=1;boundedLbl=1;backgroundOutline=1;size=6.121212121212125;fillColor=#FFF2CC;fontStyle=0" parent="1" vertex="1">
          <mxGeometry x="542" y="750" width="90" height="40" as="geometry" />
        </mxCell>
        <mxCell id="mp6wlyp8Qep9YMIuHo80-1" value="Key Pop&lt;br&gt;Size estimate" style="shape=cylinder3;whiteSpace=wrap;html=1;boundedLbl=1;backgroundOutline=1;size=15;fillColor=#FFF2CC;" parent="1" vertex="1">
          <mxGeometry x="540" y="430" width="90" height="60" as="geometry" />
        </mxCell>
        <mxCell id="mp6wlyp8Qep9YMIuHo80-2" value="S&amp;amp;D survey" style="shape=cylinder3;whiteSpace=wrap;html=1;boundedLbl=1;backgroundOutline=1;size=15;fillColor=#FFF2CC;" parent="1" vertex="1">
          <mxGeometry x="120" y="430" width="90" height="60" as="geometry" />
        </mxCell>
        <mxCell id="mp6wlyp8Qep9YMIuHo80-3" value="NGO-HIV" style="shape=cylinder3;whiteSpace=wrap;html=1;boundedLbl=1;backgroundOutline=1;size=15;fillColor=#FF9933;" parent="1" vertex="1">
          <mxGeometry x="220" y="430" width="90" height="60" as="geometry" />
        </mxCell>
        <mxCell id="mp6wlyp8Qep9YMIuHo80-4" value="HSS" style="rounded=1;whiteSpace=wrap;html=1;" parent="1" vertex="1">
          <mxGeometry x="540" y="50" width="90" height="40" as="geometry" />
        </mxCell>
        <mxCell id="mp6wlyp8Qep9YMIuHo80-7" value="S&amp;amp;D survey" style="rounded=1;whiteSpace=wrap;html=1;" parent="1" vertex="1">
          <mxGeometry x="20" y="50" width="90" height="40" as="geometry" />
        </mxCell>
        <mxCell id="mp6wlyp8Qep9YMIuHo80-8" value="BSS" style="rounded=1;whiteSpace=wrap;html=1;" parent="1" vertex="1">
          <mxGeometry x="440" y="100" width="90" height="40" as="geometry" />
        </mxCell>
        <mxCell id="mp6wlyp8Qep9YMIuHo80-9" value="Report 506" style="rounded=1;whiteSpace=wrap;html=1;" parent="1" vertex="1">
          <mxGeometry x="540" y="100" width="90" height="40" as="geometry" />
        </mxCell>
        <mxCell id="mp6wlyp8Qep9YMIuHo80-10" value="TPT-HIV" style="rounded=1;whiteSpace=wrap;html=1;" parent="1" vertex="1">
          <mxGeometry x="120" y="50" width="90" height="40" as="geometry" />
        </mxCell>
        <mxCell id="mp6wlyp8Qep9YMIuHo80-13" value="TPT-HIV" style="shape=cylinder3;whiteSpace=wrap;html=1;boundedLbl=1;backgroundOutline=1;size=15;fillColor=#FFF2CC;" parent="1" vertex="1">
          <mxGeometry x="320" y="430" width="90" height="60" as="geometry" />
        </mxCell>
        <mxCell id="mp6wlyp8Qep9YMIuHo80-14" value="ART for Migrant" style="shape=cylinder3;whiteSpace=wrap;html=1;boundedLbl=1;backgroundOutline=1;size=15;fillColor=#FF9933;" parent="1" vertex="1">
          <mxGeometry x="20" y="500" width="90" height="60" as="geometry" />
        </mxCell>
        <mxCell id="mp6wlyp8Qep9YMIuHo80-15" value="Viral Hep B/C Screening" style="rounded=1;whiteSpace=wrap;html=1;" parent="1" vertex="1">
          <mxGeometry x="220" y="50" width="90" height="40" as="geometry" />
        </mxCell>
        <mxCell id="mp6wlyp8Qep9YMIuHo80-17" value="Viral Hep B/C Screening" style="shape=cylinder3;whiteSpace=wrap;html=1;boundedLbl=1;backgroundOutline=1;size=15;fillColor=#FFF2CC;" parent="1" vertex="1">
          <mxGeometry x="120" y="500" width="90" height="60" as="geometry" />
        </mxCell>
        <mxCell id="mp6wlyp8Qep9YMIuHo80-18" value="PrEPthai" style="rounded=1;whiteSpace=wrap;html=1;" parent="1" vertex="1">
          <mxGeometry x="320" y="50" width="90" height="40" as="geometry" />
        </mxCell>
        <mxCell id="mp6wlyp8Qep9YMIuHo80-19" value="PrEPthai" style="shape=cylinder3;whiteSpace=wrap;html=1;boundedLbl=1;backgroundOutline=1;size=15;fillColor=#FFF2CC;" parent="1" vertex="1">
          <mxGeometry x="220" y="500" width="90" height="60" as="geometry" />
        </mxCell>
        <mxCell id="mp6wlyp8Qep9YMIuHo80-20" value="NASA" style="shape=cylinder3;whiteSpace=wrap;html=1;boundedLbl=1;backgroundOutline=1;size=15;fillColor=#FF9933;" parent="1" vertex="1">
          <mxGeometry x="640" y="430" width="90" height="60" as="geometry" />
        </mxCell>
        <mxCell id="mp6wlyp8Qep9YMIuHo80-23" value="PHIMS" style="shape=cylinder3;whiteSpace=wrap;html=1;boundedLbl=1;backgroundOutline=1;size=15;fillColor=#FFF2CC;" parent="1" vertex="1">
          <mxGeometry x="440" y="500" width="90" height="60" as="geometry" />
        </mxCell>
        <mxCell id="mp6wlyp8Qep9YMIuHo80-24" value="NTIP" style="shape=cylinder3;whiteSpace=wrap;html=1;boundedLbl=1;backgroundOutline=1;size=15;fillColor=#FFF2CC;" parent="1" vertex="1">
          <mxGeometry x="540" y="500" width="90" height="60" as="geometry" />
        </mxCell>
        <mxCell id="mp6wlyp8Qep9YMIuHo80-25" value="EID Testing" style="shape=cylinder3;whiteSpace=wrap;html=1;boundedLbl=1;backgroundOutline=1;size=15;fillColor=#FFF2CC;" parent="1" vertex="1">
          <mxGeometry x="640" y="500" width="90" height="60" as="geometry" />
        </mxCell>
        <mxCell id="mp6wlyp8Qep9YMIuHo80-26" value="PHIMS" style="rounded=1;whiteSpace=wrap;html=1;" parent="1" vertex="1">
          <mxGeometry x="440" y="150" width="90" height="40" as="geometry" />
        </mxCell>
        <mxCell id="mp6wlyp8Qep9YMIuHo80-27" value="NTIP" style="rounded=1;whiteSpace=wrap;html=1;" parent="1" vertex="1">
          <mxGeometry x="540" y="150" width="90" height="40" as="geometry" />
        </mxCell>
        <mxCell id="mp6wlyp8Qep9YMIuHo80-28" value="MMT facility" style="shape=cylinder3;whiteSpace=wrap;html=1;boundedLbl=1;backgroundOutline=1;size=15;fillColor=#FFF2CC;" parent="1" vertex="1">
          <mxGeometry x="740" y="500" width="90" height="60" as="geometry" />
        </mxCell>
        <mxCell id="mp6wlyp8Qep9YMIuHo80-30" value="MICS" style="shape=cylinder3;whiteSpace=wrap;html=1;boundedLbl=1;backgroundOutline=1;size=15;fillColor=#FF9933;" parent="1" vertex="1">
          <mxGeometry x="440" y="570" width="90" height="60" as="geometry" />
        </mxCell>
        <mxCell id="mp6wlyp8Qep9YMIuHo80-31" value="NHES" style="shape=cylinder3;whiteSpace=wrap;html=1;boundedLbl=1;backgroundOutline=1;size=15;fillColor=#FFF2CC;" parent="1" vertex="1">
          <mxGeometry x="540" y="570" width="90" height="60" as="geometry" />
        </mxCell>
        <mxCell id="mp6wlyp8Qep9YMIuHo80-32" value="e-Cascade" style="shape=cylinder3;whiteSpace=wrap;html=1;boundedLbl=1;backgroundOutline=1;size=15;fillColor=#FFF2CC;" parent="1" vertex="1">
          <mxGeometry x="640" y="570" width="90" height="60" as="geometry" />
        </mxCell>
        <mxCell id="mp6wlyp8Qep9YMIuHo80-34" value="RTF-Excel" style="shape=cylinder3;whiteSpace=wrap;html=1;boundedLbl=1;backgroundOutline=1;size=15;fillColor=#FF9933;" parent="1" vertex="1">
          <mxGeometry x="738" y="570" width="90" height="60" as="geometry" />
        </mxCell>
        <mxCell id="mp6wlyp8Qep9YMIuHo80-35" value="PrEP Princess" style="shape=cylinder3;whiteSpace=wrap;html=1;boundedLbl=1;backgroundOutline=1;size=15;fillColor=#FF9933;" parent="1" vertex="1">
          <mxGeometry x="440" y="640" width="90" height="60" as="geometry" />
        </mxCell>
        <mxCell id="mp6wlyp8Qep9YMIuHo80-36" value="PrEP 15" style="shape=cylinder3;whiteSpace=wrap;html=1;boundedLbl=1;backgroundOutline=1;size=15;fillColor=#FF9933;" parent="1" vertex="1">
          <mxGeometry x="540" y="640" width="90" height="60" as="geometry" />
        </mxCell>
        <mxCell id="mp6wlyp8Qep9YMIuHo80-37" value="PrEP Piman" style="shape=cylinder3;whiteSpace=wrap;html=1;boundedLbl=1;backgroundOutline=1;size=15;fillColor=#FF9933;" parent="1" vertex="1">
          <mxGeometry x="640" y="640" width="90" height="60" as="geometry" />
        </mxCell>
        <mxCell id="mp6wlyp8Qep9YMIuHo80-38" value="Death DOPA" style="shape=cylinder3;whiteSpace=wrap;html=1;boundedLbl=1;backgroundOutline=1;size=15;fillColor=#B9E0A5;" parent="1" vertex="1">
          <mxGeometry x="740" y="640" width="90" height="60" as="geometry" />
        </mxCell>
        <mxCell id="mp6wlyp8Qep9YMIuHo80-40" value="ราชทัณฑ์ปันสุข" style="shape=cylinder3;whiteSpace=wrap;html=1;boundedLbl=1;backgroundOutline=1;size=15;fillColor=#FF9933;" parent="1" vertex="1">
          <mxGeometry x="320" y="500" width="90" height="60" as="geometry" />
        </mxCell>
        <mxCell id="mp6wlyp8Qep9YMIuHo80-41" value="THCR" style="rounded=1;whiteSpace=wrap;html=1;" parent="1" vertex="1">
          <mxGeometry x="20" y="100" width="90" height="40" as="geometry" />
        </mxCell>
        <mxCell id="mp6wlyp8Qep9YMIuHo80-42" value="THCR" style="shape=cylinder3;whiteSpace=wrap;html=1;boundedLbl=1;backgroundOutline=1;size=15;fillColor=#FFF2CC;" parent="1" vertex="1">
          <mxGeometry x="20" y="570" width="90" height="60" as="geometry" />
        </mxCell>
        <mxCell id="mp6wlyp8Qep9YMIuHo80-43" value="ECHO ชุมชน HIVs" style="rounded=1;whiteSpace=wrap;html=1;" parent="1" vertex="1">
          <mxGeometry x="120" y="100" width="90" height="40" as="geometry" />
        </mxCell>
        <mxCell id="mp6wlyp8Qep9YMIuHo80-44" value="ECHO ชุมชน HIVs" style="shape=cylinder3;whiteSpace=wrap;html=1;boundedLbl=1;backgroundOutline=1;size=15;fillColor=#FFF2CC;" parent="1" vertex="1">
          <mxGeometry x="120" y="570" width="90" height="60" as="geometry" />
        </mxCell>
        <mxCell id="mp6wlyp8Qep9YMIuHo80-45" value="ระบบ Telehealth" style="rounded=1;whiteSpace=wrap;html=1;" parent="1" vertex="1">
          <mxGeometry x="220" y="100" width="90" height="40" as="geometry" />
        </mxCell>
        <mxCell id="mp6wlyp8Qep9YMIuHo80-46" value="ระบบ Telehealth" style="shape=cylinder3;whiteSpace=wrap;html=1;boundedLbl=1;backgroundOutline=1;size=15;fillColor=#FFF2CC;" parent="1" vertex="1">
          <mxGeometry x="220" y="570" width="90" height="60" as="geometry" />
        </mxCell>
        <mxCell id="mp6wlyp8Qep9YMIuHo80-47" value="ระบบ condom ddc" style="shape=cylinder3;whiteSpace=wrap;html=1;boundedLbl=1;backgroundOutline=1;size=15;fillColor=#FFF2CC;" parent="1" vertex="1">
          <mxGeometry x="320" y="570" width="90" height="60" as="geometry" />
        </mxCell>
        <mxCell id="mp6wlyp8Qep9YMIuHo80-48" value="ระบบ condom ddc" style="rounded=1;whiteSpace=wrap;html=1;" parent="1" vertex="1">
          <mxGeometry x="320" y="100" width="90" height="40" as="geometry" />
        </mxCell>
        <mxCell id="mp6wlyp8Qep9YMIuHo80-49" value="ระบบ&amp;nbsp;ThaiCBO" style="rounded=1;whiteSpace=wrap;html=1;" parent="1" vertex="1">
          <mxGeometry x="20" y="150" width="90" height="40" as="geometry" />
        </mxCell>
        <mxCell id="mp6wlyp8Qep9YMIuHo80-51" value="Index partner testing" style="shape=cylinder3;whiteSpace=wrap;html=1;boundedLbl=1;backgroundOutline=1;size=15;fillColor=#FF9933;" parent="1" vertex="1">
          <mxGeometry x="20" y="640" width="90" height="60" as="geometry" />
        </mxCell>
        <mxCell id="mp6wlyp8Qep9YMIuHo80-52" value="ระบบ&amp;nbsp;CRS ปกป้อง" style="rounded=1;whiteSpace=wrap;html=1;" parent="1" vertex="1">
          <mxGeometry x="120" y="150" width="90" height="40" as="geometry" />
        </mxCell>
        <mxCell id="mp6wlyp8Qep9YMIuHo80-53" value="ระบบ sdelearning" style="shape=cylinder3;whiteSpace=wrap;html=1;boundedLbl=1;backgroundOutline=1;size=15;fillColor=#FFF2CC;" parent="1" vertex="1">
          <mxGeometry x="120" y="640" width="90" height="60" as="geometry" />
        </mxCell>
        <mxCell id="mp6wlyp8Qep9YMIuHo80-54" value="ระบบ sdelearning" style="rounded=1;whiteSpace=wrap;html=1;" parent="1" vertex="1">
          <mxGeometry x="220" y="150" width="90" height="40" as="geometry" />
        </mxCell>
        <mxCell id="mp6wlyp8Qep9YMIuHo80-55" value="HIV E-Learning (Lab)" style="rounded=1;whiteSpace=wrap;html=1;" parent="1" vertex="1">
          <mxGeometry x="320" y="150" width="90" height="40" as="geometry" />
        </mxCell>
        <mxCell id="mp6wlyp8Qep9YMIuHo80-56" value="HIV E-Learning (Lab)" style="shape=cylinder3;whiteSpace=wrap;html=1;boundedLbl=1;backgroundOutline=1;size=15;fillColor=#FFF2CC;" parent="1" vertex="1">
          <mxGeometry x="220" y="640" width="90" height="60" as="geometry" />
        </mxCell>
        <mxCell id="mp6wlyp8Qep9YMIuHo80-58" value="MANA Application" style="rounded=1;whiteSpace=wrap;html=1;" parent="1" vertex="1">
          <mxGeometry x="20" y="200" width="90" height="40" as="geometry" />
        </mxCell>
        <mxCell id="mp6wlyp8Qep9YMIuHo80-59" value="ระบบแจ้งเตือน HIV Lab Alert" style="rounded=1;whiteSpace=wrap;html=1;" parent="1" vertex="1">
          <mxGeometry x="120" y="200" width="90" height="40" as="geometry" />
        </mxCell>
        <mxCell id="mp6wlyp8Qep9YMIuHo80-61" value="ระบบแจ้งเตือน HIV Lab Alert" style="rounded=1;whiteSpace=wrap;html=1;" parent="1" vertex="1">
          <mxGeometry x="220" y="200" width="90" height="40" as="geometry" />
        </mxCell>
        <mxCell id="mp6wlyp8Qep9YMIuHo80-62" value="HIVST Self-testing" style="rounded=1;whiteSpace=wrap;html=1;" parent="1" vertex="1">
          <mxGeometry x="320" y="200" width="90" height="40" as="geometry" />
        </mxCell>
        <mxCell id="mp6wlyp8Qep9YMIuHo80-63" value="HIVST Self-testing" style="shape=cylinder3;whiteSpace=wrap;html=1;boundedLbl=1;backgroundOutline=1;size=15;fillColor=#FFF2CC;" parent="1" vertex="1">
          <mxGeometry x="320" y="640" width="90" height="60" as="geometry" />
        </mxCell>
        <mxCell id="mp6wlyp8Qep9YMIuHo80-66" value="แอพพลิเคชั่นภายในองค์กร" style="text;html=1;strokeColor=none;fillColor=none;align=center;verticalAlign=middle;whiteSpace=wrap;rounded=0;" parent="1" vertex="1">
          <mxGeometry x="105" y="300" width="220" height="30" as="geometry" />
        </mxCell>
        <mxCell id="mp6wlyp8Qep9YMIuHo80-67" value="แอพพลิเคชั่นภายนอกองค์กร" style="text;html=1;strokeColor=none;fillColor=none;align=center;verticalAlign=middle;whiteSpace=wrap;rounded=0;" parent="1" vertex="1">
          <mxGeometry x="440" y="300" width="190" height="30" as="geometry" />
        </mxCell>
        <mxCell id="mp6wlyp8Qep9YMIuHo80-69" value="" style="rounded=0;whiteSpace=wrap;html=1;" parent="1" vertex="1">
          <mxGeometry x="650" y="30" width="190" height="160" as="geometry" />
        </mxCell>
        <mxCell id="mp6wlyp8Qep9YMIuHo80-70" value="Power BI" style="rounded=1;whiteSpace=wrap;html=1;" parent="1" vertex="1">
          <mxGeometry x="660" y="50" width="170" height="40" as="geometry" />
        </mxCell>
        <mxCell id="mp6wlyp8Qep9YMIuHo80-71" value="Web report" style="rounded=1;whiteSpace=wrap;html=1;" parent="1" vertex="1">
          <mxGeometry x="660" y="100" width="170" height="40" as="geometry" />
        </mxCell>
        <mxCell id="mp6wlyp8Qep9YMIuHo80-72" value="HIV INFO HUB" style="rounded=1;whiteSpace=wrap;html=1;" parent="1" vertex="1">
          <mxGeometry x="20" y="250" width="90" height="40" as="geometry" />
        </mxCell>
        <mxCell id="mp6wlyp8Qep9YMIuHo80-73" value="Supporting" style="text;html=1;strokeColor=none;fillColor=none;align=center;verticalAlign=middle;whiteSpace=wrap;rounded=0;" parent="1" vertex="1">
          <mxGeometry x="700" y="160" width="90" height="30" as="geometry" />
        </mxCell>
        <mxCell id="mp6wlyp8Qep9YMIuHo80-75" value="HIV INFO HUB" style="shape=cylinder3;whiteSpace=wrap;html=1;boundedLbl=1;backgroundOutline=1;size=15;fillColor=#FFF2CC;" parent="1" vertex="1">
          <mxGeometry x="20" y="360" width="190" height="60" as="geometry" />
        </mxCell>
        <mxCell id="mp6wlyp8Qep9YMIuHo80-76" value="DAS-DDC" style="shape=cylinder3;whiteSpace=wrap;html=1;boundedLbl=1;backgroundOutline=1;size=15;fillColor=#B9E0A5;" parent="1" vertex="1">
          <mxGeometry x="220" y="360" width="190" height="60" as="geometry" />
        </mxCell>
        <mxCell id="mp6wlyp8Qep9YMIuHo80-86" value="API" style="text;html=1;strokeColor=none;fillColor=none;align=center;verticalAlign=middle;whiteSpace=wrap;rounded=0;" parent="1" vertex="1">
          <mxGeometry x="700" y="300" width="90" height="30" as="geometry" />
        </mxCell>
        <mxCell id="mp6wlyp8Qep9YMIuHo80-87" value="API เพื่อเชื่อมโยงข้อมูลผล LAB " style="rounded=1;whiteSpace=wrap;html=1;" parent="1" vertex="1">
          <mxGeometry x="660" y="210" width="170" height="40" as="geometry" />
        </mxCell>
        <mxCell id="mp6wlyp8Qep9YMIuHo80-89" value="ไฟล์ข้อมูล" style="shape=cylinder3;whiteSpace=wrap;html=1;boundedLbl=1;backgroundOutline=1;size=6.121212121212125;fillColor=#FF9933;fontStyle=0" parent="1" vertex="1">
          <mxGeometry x="640" y="750" width="90" height="40" as="geometry" />
        </mxCell>
        <mxCell id="mp6wlyp8Qep9YMIuHo80-90" value="To BE" style="shape=cylinder3;whiteSpace=wrap;html=1;boundedLbl=1;backgroundOutline=1;size=6.121212121212125;fillColor=#B9E0A5;fontStyle=0" parent="1" vertex="1">
          <mxGeometry x="740" y="750" width="90" height="40" as="geometry" />
        </mxCell>
      </root>
    </mxGraphModel>
  </diagram>
  <diagram id="SzN1Zl9_9zZNh_a9kKDA" name="STG">
    <mxGraphModel dx="1426" dy="785" grid="1" gridSize="10" guides="1" tooltips="1" connect="1" arrows="1" fold="1" page="1" pageScale="1" pageWidth="850" pageHeight="1100" math="0" shadow="0">
      <root>
        <mxCell id="0" />
        <mxCell id="1" parent="0" />
      </root>
    </mxGraphModel>
  </diagram>
  <diagram id="2f404044-711c-603c-8f00-f6bb4c023d3c" name="Page-1">
    <mxGraphModel dx="1426" dy="785" grid="1" gridSize="10" guides="1" tooltips="1" connect="1" arrows="1" fold="1" page="1" pageScale="1" pageWidth="1169" pageHeight="827" background="none" math="0" shadow="0">
      <root>
        <mxCell id="0" />
        <mxCell id="1" parent="0" />
        <mxCell id="21" value="" style="swimlane;shadow=0;strokeColor=#4277BB;fillColor=#ffffff;fontColor=none;align=right;startSize=0;collapsible=0;noLabel=1;strokeWidth=3;" parent="1" vertex="1">
          <mxGeometry x="65" y="49" width="1040" height="730" as="geometry" />
        </mxCell>
        <mxCell id="23" style="edgeStyle=orthogonalEdgeStyle;rounded=0;html=1;labelBackgroundColor=#ffffff;jettySize=auto;orthogonalLoop=1;strokeColor=#EDC11C;fontColor=#000000;startArrow=classic;startFill=1;strokeWidth=2;endSize=4;startSize=4;" parent="21" source="2" target="3" edge="1">
          <mxGeometry relative="1" as="geometry" />
        </mxCell>
        <mxCell id="24" style="edgeStyle=orthogonalEdgeStyle;rounded=0;html=1;entryX=0.75;entryY=1;labelBackgroundColor=#ffffff;jettySize=auto;orthogonalLoop=1;strokeColor=#4277BB;fontColor=#000000;strokeWidth=2;endSize=4;startSize=4;startArrow=classic;startFill=1;" parent="21" source="11" target="5" edge="1">
          <mxGeometry relative="1" as="geometry" />
        </mxCell>
        <mxCell id="40" style="edgeStyle=orthogonalEdgeStyle;rounded=0;html=1;entryX=0.25;entryY=1;labelBackgroundColor=#ffffff;jettySize=auto;orthogonalLoop=1;strokeColor=#4277BB;fontColor=#000000;strokeWidth=2;endSize=4;startSize=4;startArrow=classic;startFill=1;" parent="21" source="4" target="5" edge="1">
          <mxGeometry relative="1" as="geometry" />
        </mxCell>
        <mxCell id="31" style="edgeStyle=orthogonalEdgeStyle;rounded=0;html=1;entryX=0.25;entryY=0;labelBackgroundColor=#ffffff;jettySize=auto;orthogonalLoop=1;strokeColor=#EDC11C;fontColor=#000000;startArrow=classic;strokeWidth=2;endSize=4;startSize=4;" parent="21" source="6" target="13" edge="1">
          <mxGeometry relative="1" as="geometry" />
        </mxCell>
        <mxCell id="32" style="edgeStyle=orthogonalEdgeStyle;rounded=0;html=1;entryX=0.75;entryY=0;labelBackgroundColor=#ffffff;jettySize=auto;orthogonalLoop=1;strokeColor=#EDC11C;fontColor=#000000;startArrow=classic;strokeWidth=2;endSize=4;startSize=4;" parent="21" source="6" target="5" edge="1">
          <mxGeometry relative="1" as="geometry">
            <Array as="points">
              <mxPoint x="243" y="95" />
            </Array>
          </mxGeometry>
        </mxCell>
        <mxCell id="27" style="edgeStyle=orthogonalEdgeStyle;rounded=0;html=1;labelBackgroundColor=#ffffff;jettySize=auto;orthogonalLoop=1;strokeColor=#4277BB;fontColor=#000000;strokeWidth=2;endSize=4;startSize=4;startArrow=classic;startFill=1;" parent="21" source="7" target="10" edge="1">
          <mxGeometry relative="1" as="geometry">
            <Array as="points">
              <mxPoint x="360" y="390" />
              <mxPoint x="690" y="390" />
            </Array>
          </mxGeometry>
        </mxCell>
        <mxCell id="29" style="edgeStyle=orthogonalEdgeStyle;rounded=0;html=1;labelBackgroundColor=#ffffff;jettySize=auto;orthogonalLoop=1;strokeColor=#EDC11C;fontColor=#000000;startArrow=classic;strokeWidth=2;endSize=4;startSize=4;" parent="21" source="7" target="10" edge="1">
          <mxGeometry relative="1" as="geometry">
            <Array as="points">
              <mxPoint x="360" y="210" />
              <mxPoint x="690" y="210" />
            </Array>
          </mxGeometry>
        </mxCell>
        <mxCell id="28" style="edgeStyle=orthogonalEdgeStyle;rounded=0;html=1;labelBackgroundColor=#ffffff;jettySize=auto;orthogonalLoop=1;strokeColor=#4277BB;fontColor=#000000;strokeWidth=2;endSize=4;startSize=4;startArrow=classic;startFill=1;" parent="21" source="8" target="9" edge="1">
          <mxGeometry relative="1" as="geometry">
            <Array as="points">
              <mxPoint x="470" y="390" />
              <mxPoint x="570" y="390" />
            </Array>
          </mxGeometry>
        </mxCell>
        <mxCell id="30" style="edgeStyle=orthogonalEdgeStyle;rounded=0;html=1;labelBackgroundColor=#ffffff;jettySize=auto;orthogonalLoop=1;strokeColor=#EDC11C;fontColor=#000000;startArrow=classic;strokeWidth=2;endSize=4;startSize=4;" parent="21" source="8" target="9" edge="1">
          <mxGeometry relative="1" as="geometry">
            <Array as="points">
              <mxPoint x="470" y="210" />
              <mxPoint x="570" y="210" />
            </Array>
          </mxGeometry>
        </mxCell>
        <mxCell id="26" style="edgeStyle=orthogonalEdgeStyle;rounded=0;html=1;labelBackgroundColor=#ffffff;jettySize=auto;orthogonalLoop=1;strokeColor=#4277BB;fontColor=#000000;entryX=0.75;entryY=1;strokeWidth=2;endSize=4;startSize=4;startArrow=classic;startFill=1;" parent="21" source="12" target="5" edge="1">
          <mxGeometry relative="1" as="geometry">
            <Array as="points">
              <mxPoint x="243" y="510" />
            </Array>
          </mxGeometry>
        </mxCell>
        <mxCell id="38" style="edgeStyle=orthogonalEdgeStyle;rounded=0;html=1;entryX=0.25;entryY=1;labelBackgroundColor=#ffffff;jettySize=auto;orthogonalLoop=1;strokeColor=#4277BB;fontColor=#000000;strokeWidth=2;endSize=4;startSize=4;startArrow=classic;startFill=1;" parent="21" source="12" target="13" edge="1">
          <mxGeometry relative="1" as="geometry" />
        </mxCell>
        <mxCell id="33" style="edgeStyle=orthogonalEdgeStyle;rounded=0;html=1;labelBackgroundColor=#ffffff;jettySize=auto;orthogonalLoop=1;strokeColor=#EDC11C;fontColor=#000000;startArrow=classic;strokeWidth=2;endSize=4;startSize=4;" parent="21" source="14" target="15" edge="1">
          <mxGeometry relative="1" as="geometry" />
        </mxCell>
        <mxCell id="34" style="edgeStyle=orthogonalEdgeStyle;rounded=0;html=1;entryX=1;entryY=0.25;labelBackgroundColor=#ffffff;jettySize=auto;orthogonalLoop=1;strokeColor=#EDC11C;fontColor=#000000;startArrow=classic;strokeWidth=2;endSize=4;startSize=4;" parent="21" source="14" target="13" edge="1">
          <mxGeometry relative="1" as="geometry">
            <mxPoint x="859.7058823529414" y="266.82352941176475" as="targetPoint" />
            <Array as="points">
              <mxPoint x="963" y="267" />
            </Array>
          </mxGeometry>
        </mxCell>
        <mxCell id="35" style="edgeStyle=orthogonalEdgeStyle;rounded=0;html=1;entryX=1;entryY=0.5;labelBackgroundColor=#ffffff;jettySize=auto;orthogonalLoop=1;strokeColor=#4277BB;fontColor=#000000;strokeWidth=2;endSize=4;startSize=4;" parent="21" source="16" target="13" edge="1">
          <mxGeometry relative="1" as="geometry">
            <mxPoint x="863.2352941176473" y="279.7647058823529" as="targetPoint" />
            <Array as="points">
              <mxPoint x="913" y="470" />
              <mxPoint x="913" y="280" />
            </Array>
          </mxGeometry>
        </mxCell>
        <mxCell id="37" style="edgeStyle=orthogonalEdgeStyle;rounded=0;html=1;labelBackgroundColor=#ffffff;jettySize=auto;orthogonalLoop=1;strokeColor=#4277BB;fontColor=#000000;strokeWidth=2;endSize=4;startSize=4;startArrow=classic;startFill=1;" parent="21" source="16" target="17" edge="1">
          <mxGeometry relative="1" as="geometry" />
        </mxCell>
        <mxCell id="36" style="edgeStyle=orthogonalEdgeStyle;rounded=0;html=1;entryX=1;entryY=0.75;labelBackgroundColor=#ffffff;jettySize=auto;orthogonalLoop=1;strokeColor=#4277BB;fontColor=#000000;strokeWidth=2;endSize=4;startSize=4;startArrow=classic;startFill=1;" parent="21" source="17" target="13" edge="1">
          <mxGeometry relative="1" as="geometry">
            <mxPoint x="859.7058823529414" y="292.7058823529412" as="targetPoint" />
            <Array as="points">
              <mxPoint x="893" y="620" />
              <mxPoint x="893" y="293" />
            </Array>
          </mxGeometry>
        </mxCell>
        <mxCell id="45" style="edgeStyle=orthogonalEdgeStyle;rounded=0;html=1;labelBackgroundColor=#ffffff;jettySize=auto;orthogonalLoop=1;strokeColor=#4277BB;fontSize=12;fontColor=#4277BB;strokeWidth=2;endSize=4;startSize=4;" parent="21" source="12" target="11" edge="1">
          <mxGeometry relative="1" as="geometry" />
        </mxCell>
        <mxCell id="2" value="CLOUD&lt;div&gt;USER&lt;/div&gt;" style="aspect=fixed;perimeter=ellipsePerimeter;html=1;align=center;shadow=0;dashed=0;image;image=img/lib/ibm/users/user.svg;strokeColor=#FF0000;fillColor=#FFFF66;gradientColor=none;fontColor=#4277BB;labelBackgroundColor=#ffffff;fontSize=12;spacingTop=3;" parent="21" vertex="1">
          <mxGeometry x="60" y="70" width="60" height="60" as="geometry" />
        </mxCell>
        <mxCell id="62" style="edgeStyle=orthogonalEdgeStyle;rounded=0;html=1;labelBackgroundColor=#ffffff;startArrow=classic;startFill=1;startSize=4;endSize=4;jettySize=auto;orthogonalLoop=1;strokeColor=#EDC11C;strokeWidth=2;fontSize=12;fontColor=#4277BB;" parent="21" source="3" target="5" edge="1">
          <mxGeometry relative="1" as="geometry">
            <Array as="points">
              <mxPoint x="90" y="170" />
            </Array>
          </mxGeometry>
        </mxCell>
        <mxCell id="3" value="SaaS&lt;div&gt;APPLICATIONS&lt;/div&gt;" style="aspect=fixed;perimeter=ellipsePerimeter;html=1;align=center;shadow=0;dashed=0;image;image=img/lib/ibm/applications/saas_applications.svg;strokeColor=#FF0000;fillColor=#FFFF66;gradientColor=none;fontColor=#4277BB;labelBackgroundColor=#ffffff;spacingTop=3;" parent="21" vertex="1">
          <mxGeometry x="60" y="190" width="60" height="60" as="geometry" />
        </mxCell>
        <mxCell id="4" value="INTERNAL&lt;div&gt;CHANNEL&lt;/div&gt;" style="aspect=fixed;perimeter=ellipsePerimeter;html=1;align=center;shadow=0;dashed=0;image;image=img/lib/ibm/data/data_sources.svg;strokeColor=#FF0000;fillColor=#FFFF66;gradientColor=none;fontColor=#4277BB;labelBackgroundColor=#ffffff;spacingTop=3;" parent="21" vertex="1">
          <mxGeometry x="60" y="330" width="60" height="60" as="geometry" />
        </mxCell>
        <mxCell id="5" value="EDGE&lt;div&gt;SERVICES&lt;/div&gt;" style="aspect=fixed;perimeter=ellipsePerimeter;html=1;align=center;shadow=0;dashed=0;image;image=img/lib/ibm/infrastructure/edge_services.svg;strokeColor=#FF0000;fillColor=#FFFF66;gradientColor=none;fontColor=#4277BB;labelBackgroundColor=#ffffff;spacingTop=3;" parent="21" vertex="1">
          <mxGeometry x="200" y="140" width="60" height="60" as="geometry" />
        </mxCell>
        <mxCell id="6" value="API&lt;div&gt;MANAGEMENT&lt;/div&gt;" style="aspect=fixed;perimeter=ellipsePerimeter;html=1;align=center;shadow=0;dashed=0;image;image=img/lib/ibm/management/api_management.svg;strokeColor=#FF0000;fillColor=#FFFF66;gradientColor=none;fontColor=#4277BB;labelBackgroundColor=#ffffff;spacingTop=3;" parent="21" vertex="1">
          <mxGeometry x="490" y="65" width="60" height="60" as="geometry" />
        </mxCell>
        <mxCell id="7" value="SaaS&lt;div&gt;APPLICATIONS&lt;/div&gt;" style="aspect=fixed;perimeter=ellipsePerimeter;html=1;align=center;shadow=0;dashed=0;image;image=img/lib/ibm/applications/saas_applications.svg;strokeColor=#FF0000;fillColor=#FFFF66;gradientColor=none;fontColor=#4277BB;labelBackgroundColor=#ffffff;spacingTop=3;" parent="21" vertex="1">
          <mxGeometry x="330" y="250" width="60" height="60" as="geometry" />
        </mxCell>
        <mxCell id="8" value="COGNITIVE&lt;div&gt;ANALYTICS&lt;/div&gt;&lt;div&gt;DISCOVERY &amp;amp;&lt;/div&gt;&lt;div&gt;EXPLORATION&lt;/div&gt;" style="aspect=fixed;perimeter=ellipsePerimeter;html=1;align=center;shadow=0;dashed=0;image;image=img/lib/ibm/analytics/analytics.svg;strokeColor=#FF0000;fillColor=#FFFF66;gradientColor=none;fontColor=#4277BB;labelBackgroundColor=#ffffff;spacingTop=3;" parent="21" vertex="1">
          <mxGeometry x="440" y="250" width="60" height="60" as="geometry" />
        </mxCell>
        <mxCell id="9" value="DATA&lt;div&gt;REPOSITORY&lt;/div&gt;" style="aspect=fixed;perimeter=ellipsePerimeter;html=1;align=center;shadow=0;dashed=0;image;image=img/lib/ibm/data/data_services.svg;strokeColor=#FF0000;fillColor=#FFFF66;gradientColor=none;fontColor=#4277BB;labelBackgroundColor=#ffffff;spacingTop=3;" parent="21" vertex="1">
          <mxGeometry x="540" y="250" width="60" height="60" as="geometry" />
        </mxCell>
        <mxCell id="10" value="COGNITIVE&lt;div&gt;ACTIONABLE&lt;/div&gt;&lt;div&gt;INSIGHTS&lt;/div&gt;" style="aspect=fixed;perimeter=ellipsePerimeter;html=1;align=center;shadow=0;dashed=0;image;image=img/lib/ibm/analytics/analytics.svg;strokeColor=#FF0000;fillColor=#FFFF66;gradientColor=none;fontColor=#4277BB;labelBackgroundColor=#ffffff;spacingTop=3;" parent="21" vertex="1">
          <mxGeometry x="660" y="250" width="60" height="60" as="geometry" />
        </mxCell>
        <mxCell id="11" value="STREAMING&lt;div&gt;COMPUTING&lt;/div&gt;" style="aspect=fixed;perimeter=ellipsePerimeter;html=1;align=center;shadow=0;dashed=0;image;image=img/lib/ibm/analytics/streaming_computing.svg;strokeColor=#FF0000;fillColor=#FFFF66;gradientColor=none;fontColor=#4277BB;labelBackgroundColor=#ffffff;spacingTop=3;" parent="21" vertex="1">
          <mxGeometry x="290" y="401" width="60" height="60" as="geometry" />
        </mxCell>
        <mxCell id="12" value="DATA&lt;div&gt;INTEGRATION&lt;/div&gt;" style="aspect=fixed;perimeter=ellipsePerimeter;html=1;align=center;shadow=0;dashed=0;image;image=img/lib/ibm/data/device_registry.svg;strokeColor=#FF0000;fillColor=#FFFF66;gradientColor=none;fontColor=#4277BB;labelBackgroundColor=#ffffff;spacingTop=3;" parent="21" vertex="1">
          <mxGeometry x="540" y="480" width="60" height="60" as="geometry" />
        </mxCell>
        <mxCell id="13" value="TRANSFORMATION &amp;amp;&lt;div&gt;CONNECTIVITY&lt;/div&gt;" style="aspect=fixed;perimeter=ellipsePerimeter;html=1;align=center;shadow=0;dashed=0;image;image=img/lib/ibm/infrastructure/transformation_connectivity.svg;strokeColor=#FF0000;fillColor=#FFFF66;gradientColor=none;fontColor=#4277BB;labelBackgroundColor=#ffffff;spacingTop=3;" parent="21" vertex="1">
          <mxGeometry x="790" y="250" width="60" height="60" as="geometry" />
        </mxCell>
        <mxCell id="14" value="ENTERPRISE&lt;div&gt;USER&lt;/div&gt;" style="aspect=fixed;perimeter=ellipsePerimeter;html=1;align=center;shadow=0;dashed=0;image;image=img/lib/ibm/users/user.svg;strokeColor=#FF0000;fillColor=#FFFF66;gradientColor=none;fontColor=#4277BB;labelBackgroundColor=#ffffff;spacingTop=3;" parent="21" vertex="1">
          <mxGeometry x="933" y="100" width="60" height="60" as="geometry" />
        </mxCell>
        <mxCell id="15" value="ENTERPRISE&lt;div&gt;APPLICATIONS&lt;/div&gt;" style="aspect=fixed;perimeter=ellipsePerimeter;html=1;align=center;shadow=0;dashed=0;image;image=img/lib/ibm/applications/enterprise_applications.svg;strokeColor=#FF0000;fillColor=#FFFF66;gradientColor=none;fontColor=#4277BB;labelBackgroundColor=#ffffff;spacingTop=3;" parent="21" vertex="1">
          <mxGeometry x="933" y="320" width="60" height="60" as="geometry" />
        </mxCell>
        <mxCell id="16" value="ENTERPRISE&lt;div&gt;DATA&lt;/div&gt;" style="aspect=fixed;perimeter=ellipsePerimeter;html=1;align=center;shadow=0;dashed=0;image;image=img/lib/ibm/data/enterprise_data.svg;strokeColor=#FF0000;fillColor=#FFFF66;gradientColor=none;fontColor=#4277BB;labelBackgroundColor=#ffffff;spacingTop=3;" parent="21" vertex="1">
          <mxGeometry x="933" y="440" width="60" height="60" as="geometry" />
        </mxCell>
        <mxCell id="17" value="ENTERPRISE&lt;div&gt;USER DIRECTORY&lt;/div&gt;" style="aspect=fixed;perimeter=ellipsePerimeter;html=1;align=center;shadow=0;dashed=0;image;image=img/lib/ibm/data/enterprise_user_directory.svg;strokeColor=#FF0000;fillColor=#FFFF66;gradientColor=none;fontColor=#4277BB;labelBackgroundColor=#ffffff;spacingTop=3;" parent="21" vertex="1">
          <mxGeometry x="933" y="590" width="60" height="60" as="geometry" />
        </mxCell>
        <mxCell id="39" value="" style="swimlane;shadow=0;labelBackgroundColor=#007FFF;strokeColor=#4277BB;fillColor=none;gradientColor=none;fontColor=#000000;align=right;collapsible=0;startSize=0;strokeWidth=3;" parent="21" vertex="1">
          <mxGeometry x="210" y="590" width="650" height="120" as="geometry" />
        </mxCell>
        <mxCell id="18" value="SECURITY" style="aspect=fixed;perimeter=ellipsePerimeter;html=1;align=center;shadow=0;dashed=0;image;image=img/lib/ibm/blockchain/certificate_authority.svg;strokeColor=#FF0000;fillColor=#FFFF66;gradientColor=none;fontColor=#4277BB;labelBackgroundColor=#ffffff;spacingTop=3;" parent="39" vertex="1">
          <mxGeometry x="170" y="10" width="60" height="60" as="geometry" />
        </mxCell>
        <mxCell id="19" value="INFORMATION&lt;div&gt;GOVERNANCE&lt;/div&gt;" style="aspect=fixed;perimeter=ellipsePerimeter;html=1;align=center;shadow=0;dashed=0;image;image=img/lib/ibm/management/information_governance.svg;strokeColor=#FF0000;fillColor=#FFFF66;gradientColor=none;fontColor=#4277BB;labelBackgroundColor=#ffffff;spacingTop=3;" parent="39" vertex="1">
          <mxGeometry x="330" y="10" width="60" height="60" as="geometry" />
        </mxCell>
        <mxCell id="20" value="SYSTEMS&lt;div&gt;MANAGEMENT&lt;/div&gt;" style="aspect=fixed;perimeter=ellipsePerimeter;html=1;align=center;shadow=0;dashed=0;image;image=img/lib/ibm/management/cluster_management.svg;strokeColor=#FF0000;fillColor=#FFFF66;gradientColor=none;fontColor=#4277BB;labelBackgroundColor=#ffffff;spacingTop=3;" parent="39" vertex="1">
          <mxGeometry x="497" y="10" width="60" height="60" as="geometry" />
        </mxCell>
        <mxCell id="22" value="PUBLIC NETWORK" style="text;html=1;align=left;verticalAlign=middle;fontColor=#4277BB;shadow=0;dashed=0;strokeColor=none;fillColor=none;labelBackgroundColor=none;fontStyle=1;fontSize=14;spacingLeft=5;" parent="21" vertex="1">
          <mxGeometry y="10" width="150" height="20" as="geometry" />
        </mxCell>
        <mxCell id="43" value="" style="line;strokeWidth=3;direction=south;html=1;shadow=0;labelBackgroundColor=none;fillColor=none;gradientColor=none;fontSize=12;fontColor=#4277BB;align=right;strokeColor=#4277BB;" parent="21" vertex="1">
          <mxGeometry x="225" width="10" height="130" as="geometry" />
        </mxCell>
        <mxCell id="44" value="" style="line;strokeWidth=3;direction=south;html=1;shadow=0;labelBackgroundColor=none;fillColor=none;gradientColor=none;fontSize=12;fontColor=#4277BB;align=right;strokeColor=#4277BB;" parent="21" vertex="1">
          <mxGeometry x="225" y="240" width="10" height="350" as="geometry" />
        </mxCell>
        <mxCell id="46" value="" style="line;strokeWidth=3;direction=south;html=1;shadow=0;labelBackgroundColor=none;fillColor=none;gradientColor=none;fontSize=12;fontColor=#4277BB;align=right;strokeColor=#4277BB;" parent="21" vertex="1">
          <mxGeometry x="820" y="350" width="10" height="240" as="geometry" />
        </mxCell>
        <mxCell id="47" value="" style="line;strokeWidth=3;direction=south;html=1;shadow=0;labelBackgroundColor=none;fillColor=none;gradientColor=none;fontSize=12;fontColor=#4277BB;align=right;strokeColor=#4277BB;" parent="21" vertex="1">
          <mxGeometry x="820" width="10" height="240" as="geometry" />
        </mxCell>
        <mxCell id="48" value="PROVIDER CLOUD" style="text;html=1;align=left;verticalAlign=middle;fontColor=#4277BB;shadow=0;dashed=0;strokeColor=none;fillColor=none;labelBackgroundColor=none;fontStyle=1;fontSize=14;spacingLeft=5;" parent="21" vertex="1">
          <mxGeometry x="230" y="10" width="150" height="20" as="geometry" />
        </mxCell>
        <mxCell id="49" value="ENTERPRISE NETWORK" style="text;html=1;align=left;verticalAlign=middle;fontColor=#4277BB;shadow=0;dashed=0;strokeColor=none;fillColor=none;labelBackgroundColor=none;fontStyle=1;fontSize=14;spacingLeft=5;" parent="21" vertex="1">
          <mxGeometry x="825" y="10" width="185" height="20" as="geometry" />
        </mxCell>
        <mxCell id="50" value="Application component" style="rounded=0;html=1;shadow=0;labelBackgroundColor=none;strokeColor=none;strokeWidth=2;fillColor=#EBC01A;gradientColor=none;fontSize=12;fontColor=#4277BB;align=left;labelPosition=right;verticalLabelPosition=middle;verticalAlign=middle;spacingLeft=5;" parent="21" vertex="1">
          <mxGeometry x="20" y="580" width="20" height="10" as="geometry" />
        </mxCell>
        <mxCell id="51" value="Infrastructure services" style="rounded=0;html=1;shadow=0;labelBackgroundColor=none;strokeColor=none;strokeWidth=2;fillColor=#8DC642;gradientColor=none;fontSize=12;fontColor=#4277BB;align=left;labelPosition=right;verticalLabelPosition=middle;verticalAlign=middle;spacingLeft=5;" parent="21" vertex="1">
          <mxGeometry x="20" y="600" width="20" height="10" as="geometry" />
        </mxCell>
        <mxCell id="52" value="Management" style="rounded=0;html=1;shadow=0;labelBackgroundColor=none;strokeColor=none;strokeWidth=2;fillColor=#0DB39D;gradientColor=none;fontSize=12;fontColor=#4277BB;align=left;labelPosition=right;verticalLabelPosition=middle;verticalAlign=middle;spacingLeft=5;" parent="21" vertex="1">
          <mxGeometry x="20" y="620" width="20" height="10" as="geometry" />
        </mxCell>
        <mxCell id="53" value="Data store" style="rounded=0;html=1;shadow=0;labelBackgroundColor=none;strokeColor=none;strokeWidth=2;fillColor=#335D81;gradientColor=none;fontSize=12;fontColor=#4277BB;align=left;labelPosition=right;verticalLabelPosition=middle;verticalAlign=middle;spacingLeft=5;" parent="21" vertex="1">
          <mxGeometry x="20" y="640" width="20" height="10" as="geometry" />
        </mxCell>
        <mxCell id="54" value="Analytics" style="rounded=0;html=1;shadow=0;labelBackgroundColor=none;strokeColor=none;strokeWidth=2;fillColor=#744399;gradientColor=none;fontSize=12;fontColor=#4277BB;align=left;labelPosition=right;verticalLabelPosition=middle;verticalAlign=middle;spacingLeft=5;" parent="21" vertex="1">
          <mxGeometry x="20" y="660" width="20" height="10" as="geometry" />
        </mxCell>
        <mxCell id="55" value="Device capabilities" style="rounded=0;html=1;shadow=0;labelBackgroundColor=none;strokeColor=none;strokeWidth=2;fillColor=#A72870;gradientColor=none;fontSize=12;fontColor=#4277BB;align=left;labelPosition=right;verticalLabelPosition=middle;verticalAlign=middle;spacingLeft=5;" parent="21" vertex="1">
          <mxGeometry x="20" y="680" width="20" height="10" as="geometry" />
        </mxCell>
        <mxCell id="56" value="Security" style="rounded=0;html=1;shadow=0;labelBackgroundColor=none;strokeColor=none;strokeWidth=2;fillColor=#E52134;gradientColor=none;fontSize=12;fontColor=#4277BB;align=left;labelPosition=right;verticalLabelPosition=middle;verticalAlign=middle;spacingLeft=5;" parent="21" vertex="1">
          <mxGeometry x="20" y="700" width="20" height="10" as="geometry" />
        </mxCell>
        <mxCell id="59" value="LEGEND" style="text;html=1;align=left;verticalAlign=middle;fontColor=#4277BB;shadow=0;dashed=0;strokeColor=none;fillColor=none;labelBackgroundColor=none;fontStyle=1;fontSize=14;spacingLeft=0;" parent="21" vertex="1">
          <mxGeometry x="20" y="550" width="150" height="20" as="geometry" />
        </mxCell>
      </root>
    </mxGraphModel>
  </diagram>
  <diagram id="QoEjFp6Tm28rlmdmd8Pa" name="G-Data">
    <mxGraphModel dx="1426" dy="785" grid="1" gridSize="10" guides="1" tooltips="1" connect="1" arrows="1" fold="1" page="1" pageScale="1" pageWidth="850" pageHeight="1100" math="0" shadow="0">
      <root>
        <mxCell id="0" />
        <mxCell id="1" parent="0" />
        <mxCell id="aSBO-Dq4aXyOeDiqUETN-1" value="" style="rounded=0;whiteSpace=wrap;html=1;" vertex="1" parent="1">
          <mxGeometry x="650" y="200" width="190" height="130" as="geometry" />
        </mxCell>
        <mxCell id="aSBO-Dq4aXyOeDiqUETN-2" value="" style="rounded=0;whiteSpace=wrap;html=1;" vertex="1" parent="1">
          <mxGeometry x="430" y="340" width="410" height="380" as="geometry" />
        </mxCell>
        <mxCell id="aSBO-Dq4aXyOeDiqUETN-3" value="แหล่งข้อมูลภายนอกองค์กร" style="text;html=1;strokeColor=none;fillColor=none;align=center;verticalAlign=middle;whiteSpace=wrap;rounded=0;" vertex="1" parent="1">
          <mxGeometry x="525" y="680" width="220" height="30" as="geometry" />
        </mxCell>
        <mxCell id="aSBO-Dq4aXyOeDiqUETN-4" value="" style="rounded=0;whiteSpace=wrap;html=1;" vertex="1" parent="1">
          <mxGeometry x="10" y="340" width="410" height="380" as="geometry" />
        </mxCell>
        <mxCell id="aSBO-Dq4aXyOeDiqUETN-5" value="แหล่งข้อมูลภายในองค์กร" style="text;html=1;strokeColor=none;fillColor=none;align=center;verticalAlign=middle;whiteSpace=wrap;rounded=0;" vertex="1" parent="1">
          <mxGeometry x="105" y="680" width="220" height="30" as="geometry" />
        </mxCell>
        <mxCell id="aSBO-Dq4aXyOeDiqUETN-6" value="" style="rounded=0;whiteSpace=wrap;html=1;" vertex="1" parent="1">
          <mxGeometry x="430" y="30" width="210" height="300" as="geometry" />
        </mxCell>
        <mxCell id="aSBO-Dq4aXyOeDiqUETN-7" value="" style="rounded=0;whiteSpace=wrap;html=1;" vertex="1" parent="1">
          <mxGeometry x="10" y="30" width="410" height="300" as="geometry" />
        </mxCell>
        <mxCell id="aSBO-Dq4aXyOeDiqUETN-8" value="NAP PLUS" style="rounded=1;whiteSpace=wrap;html=1;" vertex="1" parent="1">
          <mxGeometry x="440" y="50" width="90" height="40" as="geometry" />
        </mxCell>
        <mxCell id="aSBO-Dq4aXyOeDiqUETN-15" value="AEM คาดประมาณ" style="shape=cylinder3;whiteSpace=wrap;html=1;boundedLbl=1;backgroundOutline=1;size=6;fillColor=#FFF2CC;" vertex="1" parent="1">
          <mxGeometry x="20" y="430" width="90" height="50" as="geometry" />
        </mxCell>
        <mxCell id="aSBO-Dq4aXyOeDiqUETN-16" value="ฐานข้อมูล" style="shape=cylinder3;whiteSpace=wrap;html=1;boundedLbl=1;backgroundOutline=1;size=6.121212121212125;fillColor=#FFF2CC;fontStyle=0" vertex="1" parent="1">
          <mxGeometry x="542" y="730" width="90" height="40" as="geometry" />
        </mxCell>
        <mxCell id="aSBO-Dq4aXyOeDiqUETN-18" value="Viral Hep B/C Screening" style="shape=cylinder3;whiteSpace=wrap;html=1;boundedLbl=1;backgroundOutline=1;size=6;fillColor=#FFF2CC;" vertex="1" parent="1">
          <mxGeometry x="120" y="430" width="90" height="50" as="geometry" />
        </mxCell>
        <mxCell id="aSBO-Dq4aXyOeDiqUETN-20" value="HSS" style="rounded=1;whiteSpace=wrap;html=1;" vertex="1" parent="1">
          <mxGeometry x="540" y="50" width="90" height="40" as="geometry" />
        </mxCell>
        <mxCell id="aSBO-Dq4aXyOeDiqUETN-21" value="S&amp;amp;D survey" style="rounded=1;whiteSpace=wrap;html=1;" vertex="1" parent="1">
          <mxGeometry x="20" y="50" width="90" height="40" as="geometry" />
        </mxCell>
        <mxCell id="aSBO-Dq4aXyOeDiqUETN-22" value="BSS" style="rounded=1;whiteSpace=wrap;html=1;" vertex="1" parent="1">
          <mxGeometry x="440" y="100" width="90" height="40" as="geometry" />
        </mxCell>
        <mxCell id="aSBO-Dq4aXyOeDiqUETN-23" value="Report 506" style="rounded=1;whiteSpace=wrap;html=1;" vertex="1" parent="1">
          <mxGeometry x="540" y="100" width="90" height="40" as="geometry" />
        </mxCell>
        <mxCell id="aSBO-Dq4aXyOeDiqUETN-24" value="TPT-HIV" style="rounded=1;whiteSpace=wrap;html=1;" vertex="1" parent="1">
          <mxGeometry x="120" y="50" width="90" height="40" as="geometry" />
        </mxCell>
        <mxCell id="aSBO-Dq4aXyOeDiqUETN-27" value="Viral Hep B/C Screening" style="rounded=1;whiteSpace=wrap;html=1;" vertex="1" parent="1">
          <mxGeometry x="220" y="50" width="90" height="40" as="geometry" />
        </mxCell>
        <mxCell id="aSBO-Dq4aXyOeDiqUETN-29" value="PrEPthai" style="rounded=1;whiteSpace=wrap;html=1;" vertex="1" parent="1">
          <mxGeometry x="320" y="50" width="90" height="40" as="geometry" />
        </mxCell>
        <mxCell id="aSBO-Dq4aXyOeDiqUETN-35" value="PHIMS" style="rounded=1;whiteSpace=wrap;html=1;" vertex="1" parent="1">
          <mxGeometry x="440" y="150" width="90" height="40" as="geometry" />
        </mxCell>
        <mxCell id="aSBO-Dq4aXyOeDiqUETN-36" value="NTIP" style="rounded=1;whiteSpace=wrap;html=1;" vertex="1" parent="1">
          <mxGeometry x="540" y="150" width="90" height="40" as="geometry" />
        </mxCell>
        <mxCell id="aSBO-Dq4aXyOeDiqUETN-47" value="THCR" style="rounded=1;whiteSpace=wrap;html=1;" vertex="1" parent="1">
          <mxGeometry x="20" y="100" width="90" height="40" as="geometry" />
        </mxCell>
        <mxCell id="aSBO-Dq4aXyOeDiqUETN-49" value="ECHO ชุมชน HIVs" style="rounded=1;whiteSpace=wrap;html=1;" vertex="1" parent="1">
          <mxGeometry x="120" y="100" width="90" height="40" as="geometry" />
        </mxCell>
        <mxCell id="aSBO-Dq4aXyOeDiqUETN-51" value="ระบบ Telehealth" style="rounded=1;whiteSpace=wrap;html=1;" vertex="1" parent="1">
          <mxGeometry x="220" y="100" width="90" height="40" as="geometry" />
        </mxCell>
        <mxCell id="aSBO-Dq4aXyOeDiqUETN-54" value="ระบบ condom ddc" style="rounded=1;whiteSpace=wrap;html=1;" vertex="1" parent="1">
          <mxGeometry x="320" y="100" width="90" height="40" as="geometry" />
        </mxCell>
        <mxCell id="aSBO-Dq4aXyOeDiqUETN-55" value="ระบบ&amp;nbsp;ThaiCBO" style="rounded=1;whiteSpace=wrap;html=1;" vertex="1" parent="1">
          <mxGeometry x="20" y="150" width="90" height="40" as="geometry" />
        </mxCell>
        <mxCell id="aSBO-Dq4aXyOeDiqUETN-57" value="ระบบ&amp;nbsp;CRS ปกป้อง" style="rounded=1;whiteSpace=wrap;html=1;" vertex="1" parent="1">
          <mxGeometry x="120" y="150" width="90" height="40" as="geometry" />
        </mxCell>
        <mxCell id="aSBO-Dq4aXyOeDiqUETN-59" value="ระบบ sdelearning" style="rounded=1;whiteSpace=wrap;html=1;" vertex="1" parent="1">
          <mxGeometry x="220" y="150" width="90" height="40" as="geometry" />
        </mxCell>
        <mxCell id="aSBO-Dq4aXyOeDiqUETN-60" value="HIV E-Learning (Lab)" style="rounded=1;whiteSpace=wrap;html=1;" vertex="1" parent="1">
          <mxGeometry x="320" y="150" width="90" height="40" as="geometry" />
        </mxCell>
        <mxCell id="aSBO-Dq4aXyOeDiqUETN-62" value="MANA Application" style="rounded=1;whiteSpace=wrap;html=1;" vertex="1" parent="1">
          <mxGeometry x="20" y="200" width="90" height="40" as="geometry" />
        </mxCell>
        <mxCell id="aSBO-Dq4aXyOeDiqUETN-63" value="ระบบแจ้งเตือน HIV Lab Alert" style="rounded=1;whiteSpace=wrap;html=1;" vertex="1" parent="1">
          <mxGeometry x="120" y="200" width="90" height="40" as="geometry" />
        </mxCell>
        <mxCell id="aSBO-Dq4aXyOeDiqUETN-64" value="ระบบแจ้งเตือน HIV Lab Alert" style="rounded=1;whiteSpace=wrap;html=1;" vertex="1" parent="1">
          <mxGeometry x="220" y="200" width="90" height="40" as="geometry" />
        </mxCell>
        <mxCell id="aSBO-Dq4aXyOeDiqUETN-65" value="HIVST Self-testing" style="rounded=1;whiteSpace=wrap;html=1;" vertex="1" parent="1">
          <mxGeometry x="320" y="200" width="90" height="40" as="geometry" />
        </mxCell>
        <mxCell id="aSBO-Dq4aXyOeDiqUETN-67" value="แอพพลิเคชั่นภายในองค์กร" style="text;html=1;strokeColor=none;fillColor=none;align=center;verticalAlign=middle;whiteSpace=wrap;rounded=0;" vertex="1" parent="1">
          <mxGeometry x="105" y="300" width="220" height="30" as="geometry" />
        </mxCell>
        <mxCell id="aSBO-Dq4aXyOeDiqUETN-68" value="แอพพลิเคชั่นภายนอกองค์กร" style="text;html=1;strokeColor=none;fillColor=none;align=center;verticalAlign=middle;whiteSpace=wrap;rounded=0;" vertex="1" parent="1">
          <mxGeometry x="440" y="300" width="190" height="30" as="geometry" />
        </mxCell>
        <mxCell id="aSBO-Dq4aXyOeDiqUETN-69" value="" style="rounded=0;whiteSpace=wrap;html=1;" vertex="1" parent="1">
          <mxGeometry x="650" y="30" width="190" height="160" as="geometry" />
        </mxCell>
        <mxCell id="aSBO-Dq4aXyOeDiqUETN-71" value="Web report" style="rounded=1;whiteSpace=wrap;html=1;" vertex="1" parent="1">
          <mxGeometry x="660" y="50" width="170" height="40" as="geometry" />
        </mxCell>
        <mxCell id="aSBO-Dq4aXyOeDiqUETN-72" value="HIV INFO HUB" style="rounded=1;whiteSpace=wrap;html=1;" vertex="1" parent="1">
          <mxGeometry x="20" y="250" width="90" height="40" as="geometry" />
        </mxCell>
        <mxCell id="aSBO-Dq4aXyOeDiqUETN-73" value="Supporting" style="text;html=1;strokeColor=none;fillColor=none;align=center;verticalAlign=middle;whiteSpace=wrap;rounded=0;" vertex="1" parent="1">
          <mxGeometry x="700" y="160" width="90" height="30" as="geometry" />
        </mxCell>
        <mxCell id="aSBO-Dq4aXyOeDiqUETN-74" value="HIV INFO HUB" style="shape=cylinder3;whiteSpace=wrap;html=1;boundedLbl=1;backgroundOutline=1;size=10;fillColor=#FFF2CC;" vertex="1" parent="1">
          <mxGeometry x="20" y="360" width="190" height="60" as="geometry" />
        </mxCell>
        <mxCell id="aSBO-Dq4aXyOeDiqUETN-75" value="DAS-DDC" style="shape=cylinder3;whiteSpace=wrap;html=1;boundedLbl=1;backgroundOutline=1;size=10;fillColor=#FFF2CC;" vertex="1" parent="1">
          <mxGeometry x="220" y="360" width="190" height="60" as="geometry" />
        </mxCell>
        <mxCell id="aSBO-Dq4aXyOeDiqUETN-76" value="API" style="text;html=1;strokeColor=none;fillColor=none;align=center;verticalAlign=middle;whiteSpace=wrap;rounded=0;" vertex="1" parent="1">
          <mxGeometry x="700" y="300" width="90" height="30" as="geometry" />
        </mxCell>
        <mxCell id="aSBO-Dq4aXyOeDiqUETN-77" value="API เพื่อเชื่อมโยงข้อมูลผล LAB " style="rounded=1;whiteSpace=wrap;html=1;" vertex="1" parent="1">
          <mxGeometry x="660" y="210" width="170" height="40" as="geometry" />
        </mxCell>
        <mxCell id="aSBO-Dq4aXyOeDiqUETN-78" value="ไฟล์ข้อมูล" style="shape=cylinder3;whiteSpace=wrap;html=1;boundedLbl=1;backgroundOutline=1;size=6.121212121212125;fillColor=#FF9933;fontStyle=0" vertex="1" parent="1">
          <mxGeometry x="640" y="730" width="90" height="40" as="geometry" />
        </mxCell>
        <mxCell id="aSBO-Dq4aXyOeDiqUETN-79" value="To BE" style="shape=cylinder3;whiteSpace=wrap;html=1;boundedLbl=1;backgroundOutline=1;size=6.121212121212125;fillColor=#B9E0A5;fontStyle=0" vertex="1" parent="1">
          <mxGeometry x="740" y="730" width="90" height="40" as="geometry" />
        </mxCell>
        <mxCell id="aSBO-Dq4aXyOeDiqUETN-80" value="Soft-File" style="rounded=1;whiteSpace=wrap;html=1;" vertex="1" parent="1">
          <mxGeometry x="660" y="100" width="170" height="40" as="geometry" />
        </mxCell>
        <mxCell id="aSBO-Dq4aXyOeDiqUETN-81" value="NGO-HIV" style="shape=cylinder3;whiteSpace=wrap;html=1;boundedLbl=1;backgroundOutline=1;size=6;fillColor=#FF9933;strokeColor=default;" vertex="1" parent="1">
          <mxGeometry x="220" y="430" width="90" height="50" as="geometry" />
        </mxCell>
        <mxCell id="aSBO-Dq4aXyOeDiqUETN-82" value="TPT-HIV" style="shape=cylinder3;whiteSpace=wrap;html=1;boundedLbl=1;backgroundOutline=1;size=6;fillColor=#FFF2CC;" vertex="1" parent="1">
          <mxGeometry x="320" y="430" width="90" height="50" as="geometry" />
        </mxCell>
        <mxCell id="aSBO-Dq4aXyOeDiqUETN-87" value="ART for Migrant" style="shape=cylinder3;whiteSpace=wrap;html=1;boundedLbl=1;backgroundOutline=1;size=6;fillColor=#FF9933;strokeColor=default;" vertex="1" parent="1">
          <mxGeometry x="20" y="490" width="90" height="50" as="geometry" />
        </mxCell>
        <mxCell id="aSBO-Dq4aXyOeDiqUETN-88" value="S&amp;amp;D survey" style="shape=cylinder3;whiteSpace=wrap;html=1;boundedLbl=1;backgroundOutline=1;size=6;fillColor=#FFF2CC;" vertex="1" parent="1">
          <mxGeometry x="120" y="490" width="90" height="50" as="geometry" />
        </mxCell>
        <mxCell id="aSBO-Dq4aXyOeDiqUETN-89" value="PrEPthai" style="shape=cylinder3;whiteSpace=wrap;html=1;boundedLbl=1;backgroundOutline=1;size=6;fillColor=#FFF2CC;strokeColor=default;" vertex="1" parent="1">
          <mxGeometry x="220" y="490" width="90" height="50" as="geometry" />
        </mxCell>
        <mxCell id="aSBO-Dq4aXyOeDiqUETN-90" value="ราชทัณฑ์ปันสุข" style="shape=cylinder3;whiteSpace=wrap;html=1;boundedLbl=1;backgroundOutline=1;size=6;fillColor=#FF9933;" vertex="1" parent="1">
          <mxGeometry x="320" y="490" width="90" height="50" as="geometry" />
        </mxCell>
        <mxCell id="aSBO-Dq4aXyOeDiqUETN-91" value="THCR" style="shape=cylinder3;whiteSpace=wrap;html=1;boundedLbl=1;backgroundOutline=1;size=6;fillColor=#FFF2CC;" vertex="1" parent="1">
          <mxGeometry x="20" y="550" width="90" height="50" as="geometry" />
        </mxCell>
        <mxCell id="aSBO-Dq4aXyOeDiqUETN-92" value="ECHO ชุมชน HIVs" style="shape=cylinder3;whiteSpace=wrap;html=1;boundedLbl=1;backgroundOutline=1;size=6;fillColor=#FFF2CC;" vertex="1" parent="1">
          <mxGeometry x="120" y="550" width="90" height="50" as="geometry" />
        </mxCell>
        <mxCell id="aSBO-Dq4aXyOeDiqUETN-93" value="ระบบ Telehealth" style="shape=cylinder3;whiteSpace=wrap;html=1;boundedLbl=1;backgroundOutline=1;size=6;fillColor=#FFF2CC;strokeColor=default;" vertex="1" parent="1">
          <mxGeometry x="220" y="550" width="90" height="50" as="geometry" />
        </mxCell>
        <mxCell id="aSBO-Dq4aXyOeDiqUETN-94" value="ระบบ condom ddc" style="shape=cylinder3;whiteSpace=wrap;html=1;boundedLbl=1;backgroundOutline=1;size=6;fillColor=#FFF2CC;" vertex="1" parent="1">
          <mxGeometry x="320" y="550" width="90" height="50" as="geometry" />
        </mxCell>
        <mxCell id="aSBO-Dq4aXyOeDiqUETN-95" value="HIVST Self-testing" style="shape=cylinder3;whiteSpace=wrap;html=1;boundedLbl=1;backgroundOutline=1;size=6;fillColor=#FFF2CC;" vertex="1" parent="1">
          <mxGeometry x="320" y="610" width="90" height="50" as="geometry" />
        </mxCell>
        <mxCell id="aSBO-Dq4aXyOeDiqUETN-96" value="HIV E-Learning (Lab)" style="shape=cylinder3;whiteSpace=wrap;html=1;boundedLbl=1;backgroundOutline=1;size=6;fillColor=#FFF2CC;strokeColor=default;" vertex="1" parent="1">
          <mxGeometry x="220" y="610" width="90" height="50" as="geometry" />
        </mxCell>
        <mxCell id="aSBO-Dq4aXyOeDiqUETN-97" value="ระบบ sdelearning" style="shape=cylinder3;whiteSpace=wrap;html=1;boundedLbl=1;backgroundOutline=1;size=6;fillColor=#FFF2CC;" vertex="1" parent="1">
          <mxGeometry x="120" y="610" width="90" height="50" as="geometry" />
        </mxCell>
        <mxCell id="aSBO-Dq4aXyOeDiqUETN-98" value="Index partner testing" style="shape=cylinder3;whiteSpace=wrap;html=1;boundedLbl=1;backgroundOutline=1;size=6;fillColor=#FF9933;" vertex="1" parent="1">
          <mxGeometry x="20" y="610" width="90" height="50" as="geometry" />
        </mxCell>
        <mxCell id="aSBO-Dq4aXyOeDiqUETN-99" value="NAP PLUS" style="shape=cylinder3;whiteSpace=wrap;html=1;boundedLbl=1;backgroundOutline=1;size=6;fillColor=#FFF2CC;" vertex="1" parent="1">
          <mxGeometry x="440" y="370" width="90" height="50" as="geometry" />
        </mxCell>
        <mxCell id="aSBO-Dq4aXyOeDiqUETN-100" value="EIIS-43 Files-HDC" style="shape=cylinder3;whiteSpace=wrap;html=1;boundedLbl=1;backgroundOutline=1;size=6;fillColor=#FFF2CC;" vertex="1" parent="1">
          <mxGeometry x="540" y="370" width="90" height="50" as="geometry" />
        </mxCell>
        <mxCell id="aSBO-Dq4aXyOeDiqUETN-101" value="BSS" style="shape=cylinder3;whiteSpace=wrap;html=1;boundedLbl=1;backgroundOutline=1;size=6;fillColor=#FFF2CC;" vertex="1" parent="1">
          <mxGeometry x="740" y="370" width="90" height="50" as="geometry" />
        </mxCell>
        <mxCell id="aSBO-Dq4aXyOeDiqUETN-102" value="HSS" style="shape=cylinder3;whiteSpace=wrap;html=1;boundedLbl=1;backgroundOutline=1;size=6;fillColor=#FF9933;strokeColor=default;" vertex="1" parent="1">
          <mxGeometry x="640" y="370" width="90" height="50" as="geometry" />
        </mxCell>
        <mxCell id="aSBO-Dq4aXyOeDiqUETN-103" value="GAM report" style="shape=cylinder3;whiteSpace=wrap;html=1;boundedLbl=1;backgroundOutline=1;size=6;fillColor=#FF9933;" vertex="1" parent="1">
          <mxGeometry x="740" y="430" width="90" height="50" as="geometry" />
        </mxCell>
        <mxCell id="aSBO-Dq4aXyOeDiqUETN-104" value="NASA" style="shape=cylinder3;whiteSpace=wrap;html=1;boundedLbl=1;backgroundOutline=1;size=6;fillColor=#FF9933;strokeColor=default;" vertex="1" parent="1">
          <mxGeometry x="640" y="430" width="90" height="50" as="geometry" />
        </mxCell>
        <mxCell id="aSBO-Dq4aXyOeDiqUETN-105" value="Key Pop&lt;br style=&quot;border-color: var(--border-color);&quot;&gt;Size estimate" style="shape=cylinder3;whiteSpace=wrap;html=1;boundedLbl=1;backgroundOutline=1;size=6;fillColor=#FFF2CC;" vertex="1" parent="1">
          <mxGeometry x="540" y="430" width="90" height="50" as="geometry" />
        </mxCell>
        <mxCell id="aSBO-Dq4aXyOeDiqUETN-106" value="Report 506" style="shape=cylinder3;whiteSpace=wrap;html=1;boundedLbl=1;backgroundOutline=1;size=6;fillColor=#FFF2CC;" vertex="1" parent="1">
          <mxGeometry x="440" y="430" width="90" height="50" as="geometry" />
        </mxCell>
        <mxCell id="aSBO-Dq4aXyOeDiqUETN-107" value="MMT facility" style="shape=cylinder3;whiteSpace=wrap;html=1;boundedLbl=1;backgroundOutline=1;size=6;fillColor=#FFF2CC;" vertex="1" parent="1">
          <mxGeometry x="740" y="490" width="90" height="50" as="geometry" />
        </mxCell>
        <mxCell id="aSBO-Dq4aXyOeDiqUETN-108" value="EID Testing" style="shape=cylinder3;whiteSpace=wrap;html=1;boundedLbl=1;backgroundOutline=1;size=6;fillColor=#FFF2CC;strokeColor=default;" vertex="1" parent="1">
          <mxGeometry x="640" y="490" width="90" height="50" as="geometry" />
        </mxCell>
        <mxCell id="aSBO-Dq4aXyOeDiqUETN-109" value="NTIP" style="shape=cylinder3;whiteSpace=wrap;html=1;boundedLbl=1;backgroundOutline=1;size=6;fillColor=#FFF2CC;" vertex="1" parent="1">
          <mxGeometry x="540" y="490" width="90" height="50" as="geometry" />
        </mxCell>
        <mxCell id="aSBO-Dq4aXyOeDiqUETN-110" value="PHIMS" style="shape=cylinder3;whiteSpace=wrap;html=1;boundedLbl=1;backgroundOutline=1;size=6;fillColor=#FFF2CC;" vertex="1" parent="1">
          <mxGeometry x="440" y="490" width="90" height="50" as="geometry" />
        </mxCell>
        <mxCell id="aSBO-Dq4aXyOeDiqUETN-111" value="RTF-Excel" style="shape=cylinder3;whiteSpace=wrap;html=1;boundedLbl=1;backgroundOutline=1;size=6;fillColor=#FF9933;" vertex="1" parent="1">
          <mxGeometry x="740" y="550" width="90" height="50" as="geometry" />
        </mxCell>
        <mxCell id="aSBO-Dq4aXyOeDiqUETN-112" value="e-Cascade" style="shape=cylinder3;whiteSpace=wrap;html=1;boundedLbl=1;backgroundOutline=1;size=6;fillColor=#FFF2CC;strokeColor=default;" vertex="1" parent="1">
          <mxGeometry x="640" y="550" width="90" height="50" as="geometry" />
        </mxCell>
        <mxCell id="aSBO-Dq4aXyOeDiqUETN-113" value="NHES" style="shape=cylinder3;whiteSpace=wrap;html=1;boundedLbl=1;backgroundOutline=1;size=6;fillColor=#FFF2CC;" vertex="1" parent="1">
          <mxGeometry x="540" y="550" width="90" height="50" as="geometry" />
        </mxCell>
        <mxCell id="aSBO-Dq4aXyOeDiqUETN-114" value="MICS" style="shape=cylinder3;whiteSpace=wrap;html=1;boundedLbl=1;backgroundOutline=1;size=6;fillColor=#FF9933;" vertex="1" parent="1">
          <mxGeometry x="440" y="550" width="90" height="50" as="geometry" />
        </mxCell>
        <mxCell id="aSBO-Dq4aXyOeDiqUETN-115" value="Death DOPA" style="shape=cylinder3;whiteSpace=wrap;html=1;boundedLbl=1;backgroundOutline=1;size=6;fillColor=#FF9933;" vertex="1" parent="1">
          <mxGeometry x="740" y="610" width="90" height="50" as="geometry" />
        </mxCell>
        <mxCell id="aSBO-Dq4aXyOeDiqUETN-116" value="PrEP Piman" style="shape=cylinder3;whiteSpace=wrap;html=1;boundedLbl=1;backgroundOutline=1;size=6;fillColor=#FFF2CC;strokeColor=default;" vertex="1" parent="1">
          <mxGeometry x="640" y="610" width="90" height="50" as="geometry" />
        </mxCell>
        <mxCell id="aSBO-Dq4aXyOeDiqUETN-117" value="PrEP 15" style="shape=cylinder3;whiteSpace=wrap;html=1;boundedLbl=1;backgroundOutline=1;size=6;fillColor=#FFF2CC;" vertex="1" parent="1">
          <mxGeometry x="540" y="610" width="90" height="50" as="geometry" />
        </mxCell>
        <mxCell id="aSBO-Dq4aXyOeDiqUETN-118" value="PrEP Princess" style="shape=cylinder3;whiteSpace=wrap;html=1;boundedLbl=1;backgroundOutline=1;size=6;fillColor=#FF9933;" vertex="1" parent="1">
          <mxGeometry x="440" y="610" width="90" height="50" as="geometry" />
        </mxCell>
      </root>
    </mxGraphModel>
  </diagram>
</mxfile>
